<svg width="72" height="72" viewBox="0 0 72 72" fill="none" xmlns="http://www.w3.org/2000/svg">
<g clip-path="url(#clip0_3633_3900)">
<mask id="mask0_3633_3900" style="mask-type:luminance" maskUnits="userSpaceOnUse" x="0" y="0" width="72" height="72">
<path d="M72 0H0V72H72V0Z" fill="white"/>
</mask>
<g mask="url(#mask0_3633_3900)">
<mask id="mask1_3633_3900" style="mask-type:luminance" maskUnits="userSpaceOnUse" x="-1" y="-1" width="74" height="74">
<path d="M-0.25 -0.25H72.25V72.25H-0.25V-0.25Z" fill="white"/>
</mask>
<g mask="url(#mask1_3633_3900)">
<path d="M36.8982 21.5428L3.20364 30.8572C2.10805 31.1599 1.3326 32.0495 1.12271 33.0926L1.08933 34.0316C1.10687 34.168 1.13419 34.3049 1.17187 34.4412L10.486 68.1361C10.7706 69.1655 11.5735 69.9124 12.5348 70.1728L13.8501 70.2196C13.9235 70.2053 13.9969 70.188 14.0702 70.1677L47.765 60.8535C49.3159 60.4247 50.2253 58.8201 49.7966 57.2692L40.4824 23.5745C40.135 22.3181 39.0159 21.4826 37.7789 21.4386C37.4891 21.4283 37.1925 21.4615 36.8982 21.5428Z" fill="url(#paint0_linear_3633_3900)"/>
<path d="M9.30146 29.1714L3.20317 30.8572C2.86247 30.9512 2.55277 31.1023 2.2814 31.2969C1.66719 32.071 1.24494 33.0066 1.08921 34.0337C1.10664 34.1692 1.13398 34.3054 1.17141 34.4412L10.4858 68.1361C10.7438 69.0696 11.4281 69.7708 12.2702 70.0876L14.1216 70.1534L47.7647 60.8534C49.3156 60.4247 50.2252 58.8201 49.7965 57.2692L42.3543 30.3465L9.30146 29.1714Z" fill="url(#paint1_linear_3633_3900)"/>
<path d="M9.3016 29.1714L3.20317 30.8572C2.86247 30.9512 2.55277 31.1023 2.2814 31.2969C1.66719 32.071 1.24494 33.0066 1.08921 34.0337C1.10664 34.1692 1.13398 34.3054 1.17141 34.4412L6.83523 54.8753L47.364 51.8636L42.3543 30.3465L9.3016 29.1714Z" fill="url(#paint2_linear_3633_3900)"/>
<path d="M29.8757 4.11996L21.6616 39.1095C21.2837 40.72 22.2828 42.3318 23.8931 42.71L58.8824 50.9238C60.4927 51.3018 62.1047 50.3029 62.4827 48.6924L70.6968 13.7031C71.0749 12.0927 70.0757 10.4807 68.4653 10.1027L33.476 1.88872C33.2143 1.82724 32.9527 1.80222 32.6963 1.81022C31.3745 1.85164 30.1923 2.77152 29.8757 4.11996Z" fill="url(#paint3_linear_3633_3900)"/>
<path d="M11.2872 14.8066C7.91136 14.8415 5.20283 17.6065 5.23769 20.9824L5.55335 51.5462C5.58822 54.9222 8.35328 57.6306 11.7291 57.5957L60.6312 57.0907C64.007 57.0558 66.7155 54.2909 66.6807 50.9149L66.365 20.3511C66.3301 16.9752 63.5651 14.2667 60.1892 14.3016L11.2872 14.8066Z" fill="url(#paint4_linear_3633_3900)"/>
<path d="M11.2872 14.8066C7.91136 14.8415 5.20283 17.6065 5.23769 20.9824L5.55335 51.5462C5.58822 54.9222 8.35328 57.6306 11.7291 57.5957L60.6312 57.0907C64.007 57.0558 66.7155 54.2909 66.6807 50.9149L66.365 20.3511C66.3301 16.9752 63.5651 14.2667 60.1892 14.3016L11.2872 14.8066Z" fill="url(#paint5_linear_3633_3900)"/>
<path d="M11.2872 14.8066C7.91136 14.8415 5.20283 17.6065 5.23769 20.9824L5.55335 51.5462C5.58822 54.9222 8.35328 57.6306 11.7291 57.5957L60.6312 57.0907C64.007 57.0558 66.7155 54.2909 66.6807 50.9149L66.365 20.3511C66.3301 16.9752 63.5651 14.2667 60.1892 14.3016L11.2872 14.8066Z" fill="url(#paint6_radial_3633_3900)"/>
<path d="M34.3747 46.5114C32.2444 47.3789 28.5039 42.6925 26.0203 36.0443C23.5367 29.396 23.2503 23.3033 25.3808 22.4358C27.5113 21.5683 31.2518 26.2545 33.7353 32.903C36.2189 39.5511 36.5052 45.6439 34.3747 46.5114Z" fill="#FFA0BA"/>
<path d="M24.7425 22.9332L9.92206 39.1706C7.98365 41.3167 9.32749 44.9143 12.1459 45.1235L12.5772 45.1556C16.0854 45.4162 19.2757 47.439 21.0567 50.5323C21.4801 51.1397 22.284 51.2749 22.8526 50.8344C23.4211 50.394 23.5386 49.5448 23.1154 48.9374C22.3637 47.5665 23.3702 45.9397 24.9076 46.0403L33.7628 46.6201L33.7601 46.6128C31.5787 46.5163 28.2793 42.0921 26.0199 36.044C23.8212 30.1584 23.3447 24.708 24.7425 22.9332Z" fill="white"/>
<path d="M25.9283 39.8872C26.0507 39.4501 26.5042 39.1949 26.9413 39.3172L30.2934 40.2572C30.7306 40.3795 30.9859 40.8331 30.8635 41.2702C30.7411 41.7074 30.2876 41.9626 29.8504 41.8403L26.4984 40.9004C26.0613 40.778 25.806 40.3244 25.9283 39.8872Z" fill="white"/>
<path d="M25.7952 35.9931C25.7952 35.5391 26.1632 35.1711 26.6172 35.1711L31.004 35.1775C31.4579 35.1775 31.826 35.5455 31.826 35.9994C31.826 36.4534 31.4579 36.8214 31.004 36.8214L26.6172 36.8151C26.1632 36.8151 25.7952 36.4471 25.7952 35.9931Z" fill="white"/>
<path d="M25.955 32.1551C25.8326 31.7179 26.0878 31.2643 26.525 31.142L30.7635 29.9616C31.2007 29.8392 31.6543 30.0944 31.7766 30.5316C31.899 30.9688 31.6438 31.4224 31.2066 31.5447L26.9681 32.7251C26.5309 32.8475 26.0773 32.5923 25.955 32.1551Z" fill="white"/>
</g>
</g>
</g>
<defs>
<linearGradient id="paint0_linear_3633_3900" x1="29.0546" y1="68.157" x2="21.4855" y2="20.2061" gradientUnits="userSpaceOnUse">
<stop stop-color="#8C48FF"/>
<stop offset="0.5" stop-color="#4E6FEE"/>
<stop offset="1" stop-color="#1097DD"/>
</linearGradient>
<linearGradient id="paint1_linear_3633_3900" x1="22.5071" y1="47.8195" x2="22.5926" y2="64.4442" gradientUnits="userSpaceOnUse">
<stop stop-color="#47229F" stop-opacity="0"/>
<stop offset="0.25" stop-color="#28125D" stop-opacity="0.4"/>
<stop offset="0.5" stop-color="#09011B" stop-opacity="0.8"/>
<stop offset="0.75" stop-color="#28125D" stop-opacity="0.4"/>
<stop offset="1" stop-color="#47229F" stop-opacity="0"/>
</linearGradient>
<linearGradient id="paint2_linear_3633_3900" x1="2.74552" y1="35.5083" x2="13.6099" y2="35.4272" gradientUnits="userSpaceOnUse">
<stop stop-color="#47229F" stop-opacity="0"/>
<stop offset="0.25" stop-color="#28125D" stop-opacity="0.405"/>
<stop offset="0.5" stop-color="#09011B" stop-opacity="0.81"/>
<stop offset="0.75" stop-color="#28125D" stop-opacity="0.405"/>
<stop offset="1" stop-color="#47229F" stop-opacity="0"/>
</linearGradient>
<linearGradient id="paint3_linear_3633_3900" x1="48.2913" y1="35.6114" x2="38.7982" y2="-6.06402" gradientUnits="userSpaceOnUse">
<stop stop-color="#00AEFF"/>
<stop offset="0.5" stop-color="#1181E7"/>
<stop offset="1" stop-color="#2253CE"/>
</linearGradient>
<linearGradient id="paint4_linear_3633_3900" x1="41.0897" y1="39.4806" x2="65.4119" y2="57.4842" gradientUnits="userSpaceOnUse">
<stop stop-color="#F2598A"/>
<stop offset="0.5" stop-color="#F95C63"/>
<stop offset="1" stop-color="#FF5F3D"/>
</linearGradient>
<linearGradient id="paint5_linear_3633_3900" x1="72.4674" y1="65.0093" x2="46.2863" y2="43.9839" gradientUnits="userSpaceOnUse">
<stop stop-color="#FFB152"/>
<stop offset="0.5" stop-color="#FFB152" stop-opacity="0.5"/>
<stop offset="1" stop-color="#FFB152" stop-opacity="0"/>
</linearGradient>
<radialGradient id="paint6_radial_3633_3900" cx="0" cy="0" r="1" gradientUnits="userSpaceOnUse" gradientTransform="translate(0.473216 11.8631) rotate(-0.591725) scale(28.3605 28.3605)">
<stop stop-color="#A44CE3"/>
<stop offset="0.5" stop-color="#A44CE3" stop-opacity="0.5"/>
<stop offset="1" stop-color="#A44CE3" stop-opacity="0"/>
</radialGradient>
<clipPath id="clip0_3633_3900">
<rect width="72" height="72" fill="white"/>
</clipPath>
</defs>
</svg>
