<svg width="72" height="72" viewBox="0 0 72 72" fill="none" xmlns="http://www.w3.org/2000/svg">
<g clip-path="url(#clip0_3633_4081)">
<mask id="mask0_3633_4081" style="mask-type:luminance" maskUnits="userSpaceOnUse" x="0" y="0" width="72" height="72">
<path d="M72 0H0V72H72V0Z" fill="white"/>
</mask>
<g mask="url(#mask0_3633_4081)">
<mask id="mask1_3633_4081" style="mask-type:luminance" maskUnits="userSpaceOnUse" x="-1" y="-1" width="74" height="74">
<path d="M-0.25 -0.25H72.25V72.25H-0.25V-0.25Z" fill="white"/>
</mask>
<g mask="url(#mask1_3633_4081)">
<path d="M36.5824 21.1836L2.31633 31.5007C1.20216 31.836 0.429281 32.7645 0.238777 33.8369L0.226484 34.7986C0.247606 34.9378 0.278752 35.0773 0.320498 35.2159L10.6373 69.4823C10.9526 70.5292 11.7917 71.2749 12.7815 71.519L14.1287 71.5363C14.2034 71.5199 14.2781 71.5005 14.3527 71.478L48.6191 61.1611C50.1963 60.6862 51.0897 59.0228 50.6148 57.4456L40.2978 23.1794C39.9131 21.9017 38.7483 21.0727 37.4813 21.0565C37.1845 21.0527 36.8818 21.0935 36.5824 21.1836Z" fill="url(#paint0_linear_3633_4081)"/>
<path d="M8.51773 29.6334L2.316 31.5006C1.96952 31.6049 1.65609 31.7666 1.3829 31.9722C0.772336 32.7786 0.361999 33.746 0.22655 34.8007C0.247543 34.939 0.278694 35.0778 0.320162 35.2159L10.6372 69.4823C10.923 70.4316 11.6397 71.1334 12.5089 71.438L14.4051 71.4622L48.6189 61.161C50.1961 60.6862 51.0896 59.0228 50.6147 57.4456L42.3714 30.0662L8.51773 29.6334Z" fill="url(#paint1_linear_3633_4081)"/>
<path d="M8.51787 29.6334L2.316 31.5006C1.96952 31.6049 1.65609 31.7666 1.3829 31.9722C0.772336 32.7786 0.361999 33.746 0.22655 34.8007C0.247543 34.939 0.278694 35.0778 0.320162 35.2159L6.59243 55.9962L47.9994 51.9702L42.3714 30.0662L8.51787 29.6334Z" fill="url(#paint2_linear_3633_4081)"/>
<path d="M30.2724 2.75025L21.2074 38.1676C20.7903 39.7977 21.7736 41.4572 23.4036 41.8746L58.8207 50.9393C60.4507 51.3566 62.1103 50.3734 62.5275 48.7432L71.5926 13.3262C72.0098 11.696 71.0265 10.0364 69.3963 9.61918L33.9793 0.554271C33.7144 0.486429 33.4489 0.455657 33.1879 0.458588C31.8429 0.473838 30.6218 1.38531 30.2724 2.75025Z" fill="url(#paint3_linear_3633_4081)"/>
<path d="M11.6114 14.8033C8.26066 14.8158 5.55429 17.5423 5.56675 20.8931L5.67955 51.23C5.69201 54.5809 8.41859 57.2871 11.7694 57.2747L60.3083 57.0942C63.6591 57.0817 66.3654 54.3553 66.353 51.0044L66.2402 20.6675C66.2277 17.3167 63.5011 14.6104 60.1504 14.6228L11.6114 14.8033Z" fill="url(#paint4_linear_3633_4081)"/>
<path d="M11.6114 14.8033C8.26066 14.8158 5.55429 17.5423 5.56675 20.8931L5.67955 51.23C5.69201 54.5809 8.41859 57.2871 11.7694 57.2747L60.3083 57.0942C63.6591 57.0817 66.3654 54.3553 66.353 51.0044L66.2402 20.6675C66.2277 17.3167 63.5011 14.6104 60.1504 14.6228L11.6114 14.8033Z" fill="url(#paint5_linear_3633_4081)"/>
<path d="M11.6114 14.8033C8.26066 14.8158 5.55429 17.5423 5.56675 20.8931L5.67955 51.23C5.69201 54.5809 8.41859 57.2871 11.7694 57.2747L60.3083 57.0942C63.6591 57.0817 66.3654 54.3553 66.353 51.0044L66.2402 20.6675C66.2277 17.3167 63.5011 14.6104 60.1504 14.6228L11.6114 14.8033Z" fill="url(#paint6_radial_3633_4081)"/>
<path d="M34.2668 47.4417C32.1303 48.1408 28.8061 43.3149 26.8421 36.6627C24.8781 30.0106 25.018 24.0511 27.1547 23.352C29.2914 22.6528 32.6156 27.4786 34.5794 34.131C36.5434 40.783 36.4035 46.7425 34.2668 47.4417Z" fill="#FFA0BA"/>
<path d="M26.4983 23.793L10.9331 38.6033C8.89574 40.5623 9.95838 44.1619 12.6917 44.5597L13.1099 44.6207C16.5121 45.116 19.4831 47.3075 21.0067 50.4456C21.3776 51.0669 22.1521 51.254 22.7367 50.8636C23.3212 50.4734 23.4942 49.6536 23.1234 49.0324C22.4848 47.6442 23.5779 46.1275 25.0698 46.3313L33.6628 47.5056L33.6606 47.4983C31.5406 47.2542 28.6284 42.7141 26.8418 36.6625C25.1031 30.7735 25.0134 25.4271 26.4983 23.793Z" fill="white"/>
<path d="M31.1365 41.702C31.2493 41.0959 31.8321 40.696 32.4382 40.8087L38.9937 42.0296C39.5998 42.1423 39.9999 42.7251 39.887 43.3313C39.7742 43.9374 39.1913 44.3373 38.5852 44.2245L32.0298 43.0038C31.4237 42.891 31.0237 42.3081 31.1365 41.702Z" fill="white"/>
<path d="M31.0542 35.9906C31.0542 35.374 31.554 34.8742 32.1706 34.8742L40.5688 34.8769C41.1853 34.8769 41.6852 35.3767 41.6852 35.9933C41.6852 36.6098 41.1853 37.1097 40.5688 37.1097L32.1706 37.107C31.554 37.107 31.0542 36.6072 31.0542 35.9906Z" fill="white"/>
<path d="M31.153 30.271C31.0402 29.6648 31.4401 29.082 32.0463 28.9691L40.3084 27.4335C40.9146 27.3207 41.4974 27.7206 41.6103 28.3267C41.7231 28.9329 41.3232 29.5157 40.717 29.6286L32.4549 31.1642C31.8487 31.2771 31.2659 30.8772 31.153 30.271Z" fill="white"/>
</g>
</g>
</g>
<defs>
<linearGradient id="paint0_linear_3633_4081" x1="29.641" y1="69.0713" x2="20.778" y2="20.1746" gradientUnits="userSpaceOnUse">
<stop stop-color="#8C48FF"/>
<stop offset="0.5" stop-color="#4E6FEE"/>
<stop offset="1" stop-color="#1097DD"/>
</linearGradient>
<linearGradient id="paint1_linear_3633_4081" x1="22.4667" y1="48.4103" x2="22.8014" y2="63.7109" gradientUnits="userSpaceOnUse">
<stop stop-color="#47229F" stop-opacity="0"/>
<stop offset="0.25" stop-color="#28125D" stop-opacity="0.4"/>
<stop offset="0.5" stop-color="#09011B" stop-opacity="0.8"/>
<stop offset="0.75" stop-color="#28125D" stop-opacity="0.4"/>
<stop offset="1" stop-color="#47229F" stop-opacity="0"/>
</linearGradient>
<linearGradient id="paint2_linear_3633_4081" x1="1.95596" y1="36.2713" x2="13.0727" y2="35.9352" gradientUnits="userSpaceOnUse">
<stop stop-color="#47229F" stop-opacity="0"/>
<stop offset="0.25" stop-color="#28125D" stop-opacity="0.405"/>
<stop offset="0.5" stop-color="#09011B" stop-opacity="0.81"/>
<stop offset="0.75" stop-color="#28125D" stop-opacity="0.405"/>
<stop offset="1" stop-color="#47229F" stop-opacity="0"/>
</linearGradient>
<linearGradient id="paint3_linear_3633_4081" x1="48.3609" y1="35.1514" x2="39.5536" y2="-7.42545" gradientUnits="userSpaceOnUse">
<stop stop-color="#00AEFF"/>
<stop offset="0.5" stop-color="#1181E7"/>
<stop offset="1" stop-color="#2253CE"/>
</linearGradient>
<linearGradient id="paint4_linear_3633_4081" x1="41.0288" y1="39.4879" x2="65.0506" y2="57.5162" gradientUnits="userSpaceOnUse">
<stop stop-color="#F2598A"/>
<stop offset="0.5" stop-color="#F95C63"/>
<stop offset="1" stop-color="#FF5F3D"/>
</linearGradient>
<linearGradient id="paint5_linear_3633_4081" x1="72.0039" y1="65.0312" x2="46.1569" y2="43.9915" gradientUnits="userSpaceOnUse">
<stop stop-color="#FFB152"/>
<stop offset="0.5" stop-color="#FFB152" stop-opacity="0.5"/>
<stop offset="1" stop-color="#FFB152" stop-opacity="0"/>
</linearGradient>
<radialGradient id="paint6_radial_3633_4081" cx="0" cy="0" r="1" gradientUnits="userSpaceOnUse" gradientTransform="translate(0.897797 11.8109) rotate(-0.213048) scale(28.1486)">
<stop stop-color="#A44CE3"/>
<stop offset="0.5" stop-color="#A44CE3" stop-opacity="0.5"/>
<stop offset="1" stop-color="#A44CE3" stop-opacity="0"/>
</radialGradient>
<clipPath id="clip0_3633_4081">
<rect width="72" height="72" fill="white"/>
</clipPath>
</defs>
</svg>
