<svg width="72" height="72" viewBox="0 0 72 72" fill="none" xmlns="http://www.w3.org/2000/svg">
<g clip-path="url(#clip0_3633_3780)">
<mask id="mask0_3633_3780" style="mask-type:luminance" maskUnits="userSpaceOnUse" x="0" y="0" width="72" height="72">
<path d="M72 0H0V72H72V0Z" fill="white"/>
</mask>
<g mask="url(#mask0_3633_3780)">
<mask id="mask1_3633_3780" style="mask-type:luminance" maskUnits="userSpaceOnUse" x="-1" y="-1" width="74" height="74">
<path d="M-0.25 -0.25H72.25V72.25H-0.25V-0.25Z" fill="white"/>
</mask>
<g mask="url(#mask1_3633_3780)">
<path d="M37.4695 22.2677L4.97975 29.7083C3.92335 29.9502 3.14694 30.7646 2.90271 31.7492L2.83103 32.6421C2.84194 32.7729 2.86215 32.9044 2.89225 33.0359L10.3326 65.5258C10.56 66.5185 11.293 67.264 12.1976 67.5529L13.4484 67.6533C13.5189 67.6428 13.5895 67.6295 13.6603 67.6132L46.1502 60.1727C47.6457 59.8303 48.5801 58.3405 48.2376 56.845L40.7971 24.3552C40.5196 23.1437 39.4892 22.3004 38.3128 22.2059C38.0371 22.1838 37.7533 22.2028 37.4695 22.2677Z" fill="url(#paint0_linear_3633_3780)"/>
<path d="M10.8594 28.3617L4.97913 29.7083C4.65062 29.7834 4.34922 29.9141 4.08247 30.088C3.46455 30.7992 3.02261 31.6724 2.83065 32.6441C2.8415 32.7739 2.86175 32.9049 2.89163 33.0358L10.3322 65.5258C10.5383 66.4259 11.1604 67.1229 11.949 67.4604L13.7096 67.6018L46.1497 60.1727C47.6452 59.8302 48.5797 58.3404 48.2373 56.845L42.2923 30.885L10.8594 28.3617Z" fill="url(#paint1_linear_3633_3780)"/>
<path d="M10.8595 28.3617L4.97913 29.7083C4.65062 29.7834 4.34922 29.9141 4.08247 30.088C3.46455 30.7992 3.02261 31.6724 2.83065 32.6441C2.8415 32.7739 2.86175 32.9049 2.89163 33.0358L7.4184 52.7398L46.1499 51.5928L42.2923 30.885L10.8595 28.3617Z" fill="url(#paint2_linear_3633_3780)"/>
<path d="M29.2174 6.78693L22.6081 40.8875C22.3041 42.457 23.3299 43.9758 24.8993 44.2801L58.9996 50.8891C60.569 51.1933 62.0879 50.1676 62.3921 48.598L69.0013 14.4977C69.3055 12.9282 68.2797 11.4093 66.7101 11.1051L32.6099 4.49603C32.3548 4.44656 32.1012 4.43228 31.8539 4.44971C30.579 4.53969 29.4721 5.47274 29.2174 6.78693Z" fill="url(#paint3_linear_3633_3780)"/>
<path d="M10.6514 14.8236C7.2272 14.9032 4.51569 17.7437 4.59528 21.168L5.31586 52.17C5.39545 55.5944 8.236 58.3057 11.6602 58.2261L61.2634 57.0732C64.6876 56.9936 67.3991 54.1532 67.3195 50.7288L66.599 19.7268C66.5194 16.3026 63.6788 13.5911 60.2546 13.6707L10.6514 14.8236Z" fill="url(#paint4_linear_3633_3780)"/>
<path d="M10.6514 14.8236C7.2272 14.9032 4.51569 17.7437 4.59528 21.168L5.31586 52.17C5.39545 55.5944 8.236 58.3057 11.6602 58.2261L61.2634 57.0732C64.6876 56.9936 67.3991 54.1532 67.3195 50.7288L66.599 19.7268C66.5194 16.3026 63.6788 13.5911 60.2546 13.6707L10.6514 14.8236Z" fill="url(#paint5_linear_3633_3780)"/>
<path d="M10.6514 14.8236C7.2272 14.9032 4.51569 17.7437 4.59528 21.168L5.31586 52.17C5.39545 55.5944 8.236 58.3057 11.6602 58.2261L61.2634 57.0732C64.6876 56.9936 67.3991 54.1532 67.3195 50.7288L66.599 19.7268C66.5194 16.3026 63.6788 13.5911 60.2546 13.6707L10.6514 14.8236Z" fill="url(#paint6_radial_3633_3780)"/>
<path d="M34.3731 44.6122C32.2948 45.8172 27.7487 41.51 24.2193 34.9917C20.6898 28.4735 19.5135 22.2125 21.592 21.0075C23.6705 19.8024 28.2166 24.1095 31.7459 30.6279C35.2753 37.146 36.4516 43.4071 34.3731 44.6122Z" fill="#FFA0BA"/>
<path d="M21.0034 21.6142L8.01854 40.551C6.32346 43.051 8.23321 46.5782 11.1788 46.3875L11.6296 46.3584C15.2961 46.1212 18.8883 47.7527 21.1775 50.6952C21.7032 51.2623 22.5543 51.2861 23.0788 50.7483C23.6032 50.2106 23.6021 49.3152 23.0766 48.7481C22.101 47.4386 22.9071 45.6104 24.5119 45.4924L33.7556 44.813L33.7517 44.8059C31.4813 45.0212 27.4293 40.9213 24.2186 34.9915C21.094 29.2211 19.8138 23.652 21.0034 21.6142Z" fill="white"/>
<path d="M21.4375 38.5133C21.5451 38.2177 21.8719 38.0652 22.1675 38.1728L22.2048 38.1902C22.5005 38.2977 22.653 38.6246 22.5454 38.9203C22.4378 39.2159 22.1109 39.3683 21.8152 39.2607L21.778 39.2434C21.4824 39.1358 21.3299 38.8089 21.4375 38.5133Z" fill="white"/>
<path d="M21.2876 35.9953C21.2876 35.6806 21.5426 35.4256 21.8573 35.4256L21.9142 35.4373C22.2288 35.4373 22.4838 35.6924 22.4838 36.007C22.4838 36.3216 22.2288 36.5766 21.9142 36.5766L21.8573 36.5649C21.5426 36.5649 21.2876 36.3099 21.2876 35.9953Z" fill="white"/>
<path d="M21.4678 33.5523C21.3602 33.2566 21.5126 32.9297 21.8082 32.8221L21.8878 32.8043C22.1835 32.6967 22.5104 32.8492 22.618 33.1448C22.7256 33.4404 22.5731 33.7673 22.2775 33.8749L22.1979 33.8927C21.9023 34.0003 21.5754 33.8479 21.4678 33.5523Z" fill="white"/>
</g>
</g>
</g>
<defs>
<linearGradient id="paint0_linear_3633_3780" x1="28.0183" y1="66.3346" x2="22.8457" y2="20.3398" gradientUnits="userSpaceOnUse">
<stop stop-color="#8C48FF"/>
<stop offset="0.5" stop-color="#4E6FEE"/>
<stop offset="1" stop-color="#1097DD"/>
</linearGradient>
<linearGradient id="paint1_linear_3633_3780" x1="22.6455" y1="46.6849" x2="22.0728" y2="66.1654" gradientUnits="userSpaceOnUse">
<stop stop-color="#47229F" stop-opacity="0"/>
<stop offset="0.25" stop-color="#28125D" stop-opacity="0.4"/>
<stop offset="0.5" stop-color="#09011B" stop-opacity="0.8"/>
<stop offset="0.75" stop-color="#28125D" stop-opacity="0.4"/>
<stop offset="1" stop-color="#47229F" stop-opacity="0"/>
</linearGradient>
<linearGradient id="paint2_linear_3633_3780" x1="4.34565" y1="34.119" x2="14.6974" y2="34.5033" gradientUnits="userSpaceOnUse">
<stop stop-color="#47229F" stop-opacity="0"/>
<stop offset="0.25" stop-color="#28125D" stop-opacity="0.405"/>
<stop offset="0.5" stop-color="#09011B" stop-opacity="0.81"/>
<stop offset="0.75" stop-color="#28125D" stop-opacity="0.405"/>
<stop offset="1" stop-color="#47229F" stop-opacity="0"/>
</linearGradient>
<linearGradient id="paint3_linear_3633_3780" x1="48.1926" y1="36.5022" x2="37.4488" y2="-3.38531" gradientUnits="userSpaceOnUse">
<stop stop-color="#00AEFF"/>
<stop offset="0.5" stop-color="#1181E7"/>
<stop offset="1" stop-color="#2253CE"/>
</linearGradient>
<linearGradient id="paint4_linear_3633_3780" x1="41.2084" y1="39.4643" x2="66.1184" y2="57.4099" gradientUnits="userSpaceOnUse">
<stop stop-color="#F2598A"/>
<stop offset="0.5" stop-color="#F95C63"/>
<stop offset="1" stop-color="#FF5F3D"/>
</linearGradient>
<linearGradient id="paint5_linear_3633_3780" x1="73.3746" y1="64.9515" x2="46.5392" y2="43.9646" gradientUnits="userSpaceOnUse">
<stop stop-color="#FFB152"/>
<stop offset="0.5" stop-color="#FFB152" stop-opacity="0.5"/>
<stop offset="1" stop-color="#FFB152" stop-opacity="0"/>
</linearGradient>
<radialGradient id="paint6_radial_3633_3780" cx="0" cy="0" r="1" gradientUnits="userSpaceOnUse" gradientTransform="translate(-0.357592 11.9792) rotate(-1.33148) scale(28.7733 28.7733)">
<stop stop-color="#A44CE3"/>
<stop offset="0.5" stop-color="#A44CE3" stop-opacity="0.5"/>
<stop offset="1" stop-color="#A44CE3" stop-opacity="0"/>
</radialGradient>
<clipPath id="clip0_3633_3780">
<rect width="72" height="72" fill="white"/>
</clipPath>
</defs>
</svg>
