<svg width="72" height="72" viewBox="0 0 72 72" fill="none" xmlns="http://www.w3.org/2000/svg">
<g clip-path="url(#clip0_5029_51041)">
<mask id="mask0_5029_51041" style="mask-type:luminance" maskUnits="userSpaceOnUse" x="0" y="0" width="72" height="72">
<path d="M72 0H0V72H72V0Z" fill="white"/>
</mask>
<g mask="url(#mask0_5029_51041)">
<mask id="mask1_5029_51041" style="mask-type:luminance" maskUnits="userSpaceOnUse" x="-1" y="-1" width="74" height="74">
<path d="M-0.25 -0.25H72.25V72.25H-0.25V-0.25Z" fill="white"/>
</mask>
<g mask="url(#mask1_5029_51041)">
<path d="M4.80688 36.235C4.80688 53.5205 18.8198 67.5332 36.1053 67.5332C53.3908 67.5332 67.4034 53.5205 67.4034 36.235C67.4034 18.9495 53.3908 4.93677 36.1053 4.93677C18.8198 4.93677 4.80688 18.9495 4.80688 36.235Z" fill="url(#paint0_linear_5029_51041)"/>
<path d="M5.93213 36.0867C5.93213 52.7487 19.4395 66.2559 36.1015 66.2559C52.7635 66.2559 66.2706 52.7487 66.2706 36.0867C66.2706 19.4247 52.7635 5.91748 36.1015 5.91748C19.4395 5.91748 5.93213 19.4247 5.93213 36.0867Z" fill="url(#paint1_linear_5029_51041)"/>
<path d="M68.2573 15.4729C69.8768 15.4729 71.1897 16.7858 71.1897 18.4053C71.1897 20.0249 69.8768 21.3377 68.2573 21.3377H36.0001C34.3805 21.3377 33.0677 20.0249 33.0677 18.4053C33.0677 16.7858 34.3805 15.4729 36.0001 15.4729H68.2573ZM3.7431 38.9325C2.12354 38.9325 0.810547 40.2454 0.810547 41.8651C0.810547 43.4846 2.12354 44.7975 3.7431 44.7975H36.0001C37.6198 44.7975 38.9327 43.4846 38.9327 41.8651C38.9327 40.2454 37.6198 38.9325 36.0001 38.9325H3.7431ZM44.7975 41.8651C44.7975 40.2454 46.1103 38.9325 47.7301 38.9325H56.5274C58.147 38.9325 59.4599 40.2454 59.4599 41.8651C59.4599 43.4846 58.147 44.7975 56.5274 44.7975H47.7301C46.1103 44.7975 44.7975 43.4846 44.7975 41.8651ZM24.2703 15.4729C25.8899 15.4729 27.2027 16.7858 27.2027 18.4053C27.2027 20.0249 25.8899 21.3377 24.2703 21.3377H15.4729C13.8533 21.3377 12.5405 20.0249 12.5405 18.4053C12.5405 16.7858 13.8533 15.4729 15.4729 15.4729H24.2703ZM0.810547 53.5949C0.810547 51.9753 2.12354 50.6625 3.7431 50.6625H56.5274C58.147 50.6625 59.4599 51.9753 59.4599 53.5949C59.4599 55.2144 58.147 56.5273 56.5274 56.5273H3.7431C2.12354 56.5273 0.810547 55.2144 0.810547 53.5949ZM15.4729 27.2027C13.8533 27.2027 12.5405 28.5156 12.5405 30.1351C12.5405 31.7548 13.8533 33.0677 15.4729 33.0677H68.2573C69.8768 33.0677 71.1897 31.7548 71.1897 30.1351C71.1897 28.5156 69.8768 27.2027 68.2573 27.2027H15.4729Z" fill="#707070" fill-opacity="0.96"/>
</g>
</g>
</g>
<defs>
<linearGradient id="paint0_linear_5029_51041" x1="52.8348" y1="62.5748" x2="17.1301" y2="11.729" gradientUnits="userSpaceOnUse">
<stop stop-color="#E25A01" stop-opacity="0.685641"/>
<stop offset="0.5" stop-color="#F09701" stop-opacity="0.685641"/>
<stop offset="1" stop-color="#FFD400" stop-opacity="0.685641"/>
</linearGradient>
<linearGradient id="paint1_linear_5029_51041" x1="52.2275" y1="61.4764" x2="17.8108" y2="12.4647" gradientUnits="userSpaceOnUse">
<stop stop-color="#E25A01"/>
<stop offset="0.5" stop-color="#F09701"/>
<stop offset="1" stop-color="#FFD400"/>
</linearGradient>
<clipPath id="clip0_5029_51041">
<rect width="72" height="72" fill="white"/>
</clipPath>
</defs>
</svg>
