<svg width="72" height="72" viewBox="0 0 72 72" fill="none" xmlns="http://www.w3.org/2000/svg">
<g clip-path="url(#clip0_5029_51905)">
<mask id="mask0_5029_51905" style="mask-type:luminance" maskUnits="userSpaceOnUse" x="0" y="0" width="72" height="72">
<path d="M72 0H0V72H72V0Z" fill="white"/>
</mask>
<g mask="url(#mask0_5029_51905)">
<mask id="mask1_5029_51905" style="mask-type:luminance" maskUnits="userSpaceOnUse" x="-1" y="-1" width="74" height="74">
<path d="M-0.25 -0.25H72.25V72.25H-0.25V-0.25Z" fill="white"/>
</mask>
<g mask="url(#mask1_5029_51905)">
<path d="M0.714844 36.2467C0.714844 55.7998 16.5659 71.6507 36.119 71.6507C55.672 71.6507 71.5227 55.7998 71.5227 36.2467C71.5227 16.6937 55.672 0.842773 36.119 0.842773C16.5659 0.842773 0.714844 16.6937 0.714844 36.2467Z" fill="url(#paint0_linear_5029_51905)"/>
<path d="M8.41211 36.0796C8.41211 51.3672 20.8053 63.7602 36.0929 63.7602C51.3805 63.7602 63.7734 51.3672 63.7734 36.0796C63.7734 20.792 51.3805 8.39893 36.0929 8.39893C20.8053 8.39893 8.41211 20.792 8.41211 36.0796Z" fill="url(#paint1_linear_5029_51905)"/>
<path d="M14.7576 17.875C14.7576 17.875 18.044 17.875 20.69 17.875" stroke="#707070" stroke-width="5.945" stroke-linecap="round"/>
<path d="M35.9636 17.875C35.9636 17.875 47.8024 17.875 57.3343 17.875" stroke="#707070" stroke-width="5.945" stroke-linecap="round"/>
<path d="M14.8662 29.9824C14.8662 29.9824 34.2482 29.9824 49.8534 29.9824" stroke="#707070" stroke-width="5.945" stroke-linecap="round"/>
<path d="M2.8313 42.0898C2.8313 42.0898 14.683 42.0898 24.2253 42.0898" stroke="#707070" stroke-width="5.945" stroke-linecap="round"/>
<path d="M2.8313 54.125C2.8313 54.125 22.2133 54.125 37.8185 54.125" stroke="#707070" stroke-width="5.945" stroke-linecap="round"/>
<path d="M48.0349 42.0173C48.0349 42.0173 51.3213 42.0173 53.9673 42.0173" stroke="#707070" stroke-width="5.945" stroke-linecap="round"/>
</g>
</g>
</g>
<defs>
<linearGradient id="paint0_linear_5029_51905" x1="55.0431" y1="66.0418" x2="14.6546" y2="8.52606" gradientUnits="userSpaceOnUse">
<stop stop-color="#E25A01" stop-opacity="0.247692"/>
<stop offset="0.5" stop-color="#F09701" stop-opacity="0.247692"/>
<stop offset="1" stop-color="#FFD400" stop-opacity="0.247692"/>
</linearGradient>
<linearGradient id="paint1_linear_5029_51905" x1="50.8887" y1="59.3749" x2="19.3109" y2="14.4061" gradientUnits="userSpaceOnUse">
<stop stop-color="#E25A01"/>
<stop offset="0.5" stop-color="#F09701"/>
<stop offset="1" stop-color="#FFD400"/>
</linearGradient>
<clipPath id="clip0_5029_51905">
<rect width="72" height="72" fill="white"/>
</clipPath>
</defs>
</svg>
