<svg width="72" height="72" viewBox="0 0 72 72" fill="none" xmlns="http://www.w3.org/2000/svg">
<g clip-path="url(#clip0_5029_52301)">
<mask id="mask0_5029_52301" style="mask-type:luminance" maskUnits="userSpaceOnUse" x="0" y="0" width="72" height="72">
<path d="M72 0H0V72H72V0Z" fill="white"/>
</mask>
<g mask="url(#mask0_5029_52301)">
<mask id="mask1_5029_52301" style="mask-type:luminance" maskUnits="userSpaceOnUse" x="-1" y="-1" width="74" height="74">
<path d="M-0.25 -0.25H72.25V72.25H-0.25V-0.25Z" fill="white"/>
</mask>
<g mask="url(#mask1_5029_52301)">
<path d="M4.45752 36.236C4.45752 53.7152 18.6274 67.8848 36.1065 67.8848C53.5857 67.8848 67.7552 53.7152 67.7552 36.236C67.7552 18.7568 53.5857 4.58716 36.1065 4.58716C18.6274 4.58716 4.45752 18.7568 4.45752 36.236Z" fill="url(#paint0_linear_5029_52301)"/>
<path d="M5.94971 36.0866C5.94971 52.7388 19.4492 66.2381 36.1014 66.2381C52.7536 66.2381 66.2528 52.7388 66.2528 36.0866C66.2528 19.4344 52.7536 5.93506 36.1014 5.93506C19.4492 5.93506 5.94971 19.4344 5.94971 36.0866Z" fill="url(#paint1_linear_5029_52301)"/>
<path d="M14.7576 17.875C14.7576 17.875 22.9404 17.875 23.8779 17.875" stroke="#707070" stroke-width="5.945" stroke-linecap="round"/>
<path d="M35.9639 17.875C35.9639 17.875 65.4411 17.875 68.8185 17.875" stroke="#707070" stroke-width="5.945" stroke-linecap="round"/>
<path d="M14.8662 29.9824C14.8662 29.9824 63.125 29.9824 68.6544 29.9824" stroke="#707070" stroke-width="5.945" stroke-linecap="round"/>
<path d="M2.8313 42.0901C2.8313 42.0901 32.3407 42.0901 35.7218 42.0901" stroke="#707070" stroke-width="5.945" stroke-linecap="round"/>
<path d="M2.8313 54.125C2.8313 54.125 51.0901 54.125 56.6195 54.125" stroke="#707070" stroke-width="5.945" stroke-linecap="round"/>
<path d="M48.0352 42.0176C48.0352 42.0176 56.2179 42.0176 57.1555 42.0176" stroke="#707070" stroke-width="5.945" stroke-linecap="round"/>
</g>
</g>
</g>
<defs>
<linearGradient id="paint0_linear_5029_52301" x1="53.0234" y1="62.8709" x2="16.9188" y2="11.4555" gradientUnits="userSpaceOnUse">
<stop stop-color="#E25A01" stop-opacity="0.0538462"/>
<stop offset="0.5" stop-color="#F09701" stop-opacity="0.0538462"/>
<stop offset="1" stop-color="#FFD400" stop-opacity="0.0538462"/>
</linearGradient>
<linearGradient id="paint1_linear_5029_52301" x1="52.218" y1="61.4614" x2="17.8214" y2="12.4785" gradientUnits="userSpaceOnUse">
<stop stop-color="#E25A01"/>
<stop offset="0.5" stop-color="#F09701"/>
<stop offset="1" stop-color="#FFD400"/>
</linearGradient>
<clipPath id="clip0_5029_52301">
<rect width="72" height="72" fill="white"/>
</clipPath>
</defs>
</svg>
