<svg width="72" height="72" viewBox="0 0 72 72" fill="none" xmlns="http://www.w3.org/2000/svg">
<g clip-path="url(#clip0_5029_51545)">
<mask id="mask0_5029_51545" style="mask-type:luminance" maskUnits="userSpaceOnUse" x="0" y="0" width="72" height="72">
<path d="M72 0H0V72H72V0Z" fill="white"/>
</mask>
<g mask="url(#mask0_5029_51545)">
<mask id="mask1_5029_51545" style="mask-type:luminance" maskUnits="userSpaceOnUse" x="-1" y="-1" width="74" height="74">
<path d="M-0.25 -0.25H72.25V72.25H-0.25V-0.25Z" fill="white"/>
</mask>
<g mask="url(#mask1_5029_51545)">
<path d="M-0.0544434 36.2491C-0.0544434 56.2284 16.1422 72.4249 36.1216 72.4249C56.1009 72.4249 72.2972 56.2284 72.2972 36.2491C72.2972 16.2697 56.1009 0.0732422 36.1216 0.0732422C16.1422 0.0732422 -0.0544434 16.2697 -0.0544434 36.2491Z" fill="url(#paint0_linear_5029_51545)"/>
<path d="M11.7156 36.0703C11.7156 49.5273 22.6248 60.4364 36.0819 60.4364C49.5389 60.4364 60.4479 49.5273 60.4479 36.0703C60.4479 22.6132 49.5389 11.7041 36.0819 11.7041C22.6248 11.7041 11.7156 22.6132 11.7156 36.0703Z" fill="url(#paint1_linear_5029_51545)"/>
<path d="M53.3203 24.978C54.1899 24.978 54.8949 25.683 54.8949 26.5526C54.8949 27.4222 54.1899 28.1271 53.3203 28.1271H36C35.1304 28.1271 34.4255 27.4222 34.4255 26.5526C34.4255 25.683 35.1304 24.978 36 24.978H53.3203ZM18.6798 37.5745C17.8102 37.5745 17.1052 38.2794 17.1052 39.1491C17.1052 40.0188 17.8102 40.7237 18.6798 40.7237H36C36.8697 40.7237 37.5747 40.0188 37.5747 39.1491C37.5747 38.2794 36.8697 37.5745 36 37.5745H18.6798ZM40.7237 39.1491C40.7237 38.2794 41.4287 37.5745 42.2984 37.5745H47.0221C47.8917 37.5745 48.5966 38.2794 48.5966 39.1491C48.5966 40.0188 47.8917 40.7237 47.0221 40.7237H42.2984C41.4287 40.7237 40.7237 40.0188 40.7237 39.1491ZM29.7018 24.978C30.5714 24.978 31.2763 25.683 31.2763 26.5526C31.2763 27.4222 30.5714 28.1271 29.7018 28.1271H24.9781C24.1085 28.1271 23.4035 27.4222 23.4035 26.5526C23.4035 25.683 24.1085 24.978 24.9781 24.978H29.7018ZM17.1052 45.4474C17.1052 44.5778 17.8102 43.8728 18.6798 43.8728H47.0221C47.8917 43.8728 48.5966 44.5778 48.5966 45.4474C48.5966 46.317 47.8917 47.0219 47.0221 47.0219H18.6798C17.8102 47.0219 17.1052 46.317 17.1052 45.4474ZM24.9781 31.2763C24.1085 31.2763 23.4035 31.9812 23.4035 32.8508C23.4035 33.7205 24.1085 34.4254 24.9781 34.4254H53.3203C54.1899 34.4254 54.8949 33.7205 54.8949 32.8508C54.8949 31.9812 54.1899 31.2763 53.3203 31.2763H24.9781Z" fill="#707070" fill-opacity="0.24"/>
</g>
</g>
</g>
<defs>
<linearGradient id="paint0_linear_5029_51545" x1="55.4582" y1="66.6938" x2="14.1892" y2="7.92404" gradientUnits="userSpaceOnUse">
<stop stop-color="#E25A01" stop-opacity="0.427179"/>
<stop offset="0.5" stop-color="#F09701" stop-opacity="0.427179"/>
<stop offset="1" stop-color="#FFD400" stop-opacity="0.427179"/>
</linearGradient>
<linearGradient id="paint1_linear_5029_51545" x1="49.1061" y1="56.5763" x2="21.3094" y2="16.992" gradientUnits="userSpaceOnUse">
<stop stop-color="#E25A01"/>
<stop offset="0.5" stop-color="#F09701"/>
<stop offset="1" stop-color="#FFD400"/>
</linearGradient>
<clipPath id="clip0_5029_51545">
<rect width="72" height="72" fill="white"/>
</clipPath>
</defs>
</svg>
