<svg width="72" height="72" viewBox="0 0 72 72" fill="none" xmlns="http://www.w3.org/2000/svg">
<g clip-path="url(#clip0_5029_51437)">
<mask id="mask0_5029_51437" style="mask-type:luminance" maskUnits="userSpaceOnUse" x="0" y="0" width="72" height="72">
<path d="M72 0H0V72H72V0Z" fill="white"/>
</mask>
<g mask="url(#mask0_5029_51437)">
<mask id="mask1_5029_51437" style="mask-type:luminance" maskUnits="userSpaceOnUse" x="-1" y="-1" width="74" height="74">
<path d="M-0.25 -0.25H72.25V72.25H-0.25V-0.25Z" fill="white"/>
</mask>
<g mask="url(#mask1_5029_51437)">
<path d="M-0.118164 36.2492C-0.118164 56.2639 16.1071 72.489 36.1217 72.489C56.1364 72.489 72.3613 56.2639 72.3613 36.2492C72.3613 16.2346 56.1364 0.00952148 36.1217 0.00952148C16.1071 0.00952148 -0.118164 16.2346 -0.118164 36.2492Z" fill="url(#paint0_linear_5029_51437)"/>
<path d="M11.8894 36.0697C11.8894 49.4305 22.7206 60.2615 36.0813 60.2615C49.442 60.2615 60.273 49.4305 60.273 36.0697C60.273 22.709 49.442 11.8779 36.0813 11.8779C22.7206 11.8779 11.8894 22.709 11.8894 36.0697Z" fill="url(#paint1_linear_5029_51437)"/>
<path d="M54.1246 24.4663C55.0346 24.4663 55.7723 25.204 55.7723 26.114C55.7723 27.024 55.0346 27.7617 54.1246 27.7617H35.9999C35.0899 27.7617 34.3522 27.024 34.3522 26.114C34.3522 25.204 35.0899 24.4663 35.9999 24.4663H54.1246ZM17.8753 37.6478C16.9653 37.6478 16.2275 38.3855 16.2275 39.2956C16.2275 40.2056 16.9653 40.9433 17.8753 40.9433H35.9999C36.91 40.9433 37.6477 40.2056 37.6477 39.2956C37.6477 38.3855 36.91 37.6478 35.9999 37.6478H17.8753ZM40.943 39.2956C40.943 38.3855 41.6807 37.6478 42.5908 37.6478H47.5339C48.4439 37.6478 49.1815 38.3855 49.1815 39.2956C49.1815 40.2056 48.4439 40.9433 47.5339 40.9433H42.5908C41.6807 40.9433 40.943 40.2056 40.943 39.2956ZM29.4092 24.4663C30.3192 24.4663 31.0568 25.204 31.0568 26.114C31.0568 27.024 30.3192 27.7617 29.4092 27.7617H24.4661C23.5561 27.7617 22.8184 27.024 22.8184 26.114C22.8184 25.204 23.5561 24.4663 24.4661 24.4663H29.4092ZM16.2275 45.8864C16.2275 44.9764 16.9653 44.2387 17.8753 44.2387H47.5339C48.4439 44.2387 49.1815 44.9764 49.1815 45.8864C49.1815 46.7964 48.4439 47.534 47.5339 47.534H17.8753C16.9653 47.534 16.2275 46.7964 16.2275 45.8864ZM24.4661 31.0571C23.5561 31.0571 22.8184 31.7947 22.8184 32.7047C22.8184 33.6148 23.5561 34.3525 24.4661 34.3525H54.1246C55.0346 34.3525 55.7723 33.6148 55.7723 32.7047C55.7723 31.7947 55.0346 31.0571 54.1246 31.0571H24.4661Z" fill="#707070" fill-opacity="0.4"/>
</g>
</g>
</g>
<defs>
<linearGradient id="paint0_linear_5029_51437" x1="55.4926" y1="66.7477" x2="14.1507" y2="7.87419" gradientUnits="userSpaceOnUse">
<stop stop-color="#E25A01" stop-opacity="0.484615"/>
<stop offset="0.5" stop-color="#F09701" stop-opacity="0.484615"/>
<stop offset="1" stop-color="#FFD400" stop-opacity="0.484615"/>
</linearGradient>
<linearGradient id="paint1_linear_5029_51437" x1="49.0123" y1="56.4289" x2="21.4146" y2="17.128" gradientUnits="userSpaceOnUse">
<stop stop-color="#E25A01"/>
<stop offset="0.5" stop-color="#F09701"/>
<stop offset="1" stop-color="#FFD400"/>
</linearGradient>
<clipPath id="clip0_5029_51437">
<rect width="72" height="72" fill="white"/>
</clipPath>
</defs>
</svg>
