<svg width="72" height="72" viewBox="0 0 72 72" fill="none" xmlns="http://www.w3.org/2000/svg">
<g clip-path="url(#clip0_5029_51113)">
<mask id="mask0_5029_51113" style="mask-type:luminance" maskUnits="userSpaceOnUse" x="0" y="0" width="72" height="72">
<path d="M72 0H0V72H72V0Z" fill="white"/>
</mask>
<g mask="url(#mask0_5029_51113)">
<mask id="mask1_5029_51113" style="mask-type:luminance" maskUnits="userSpaceOnUse" x="-1" y="-1" width="74" height="74">
<path d="M-0.25 -0.25H72.25V72.25H-0.25V-0.25Z" fill="white"/>
</mask>
<g mask="url(#mask1_5029_51113)">
<path d="M1.73462 36.2438C1.73462 55.2318 17.1276 70.6246 36.1156 70.6246C55.1035 70.6246 70.4962 55.2318 70.4962 36.2438C70.4962 17.2559 55.1035 1.86304 36.1156 1.86304C17.1276 1.86304 1.73462 17.2559 1.73462 36.2438Z" fill="url(#paint0_linear_5029_51113)"/>
<path d="M6.53296 36.085C6.53296 52.4139 19.7704 65.6512 36.0993 65.6512C52.4282 65.6512 65.6654 52.4139 65.6654 36.085C65.6654 19.7561 52.4282 6.5188 36.0993 6.5188C19.7704 6.5188 6.53296 19.7561 6.53296 36.085Z" fill="url(#paint1_linear_5029_51113)"/>
<path d="M63.4535 18.5295C64.8319 18.5295 65.9493 19.6469 65.9493 21.0253C65.9493 22.4037 64.8319 23.521 63.4535 23.521H36C34.6216 23.521 33.5043 22.4037 33.5043 21.0253C33.5043 19.6469 34.6216 18.5295 36 18.5295H63.4535ZM8.54663 38.4956C7.16825 38.4956 6.05078 39.613 6.05078 40.9915C6.05078 42.3699 7.16825 43.4872 8.54663 43.4872H36C37.3785 43.4872 38.4959 42.3699 38.4959 40.9915C38.4959 39.613 37.3785 38.4956 36 38.4956H8.54663ZM43.4873 40.9915C43.4873 39.613 44.6047 38.4956 45.9832 38.4956H53.4705C54.8489 38.4956 55.9662 39.613 55.9662 40.9915C55.9662 42.3699 54.8489 43.4872 53.4705 43.4872H45.9832C44.6047 43.4872 43.4873 42.3699 43.4873 40.9915ZM26.017 18.5295C27.3954 18.5295 28.5127 19.6469 28.5127 21.0253C28.5127 22.4037 27.3954 23.521 26.017 23.521H18.5297C17.1513 23.521 16.0339 22.4037 16.0339 21.0253C16.0339 19.6469 17.1513 18.5295 18.5297 18.5295H26.017ZM6.05078 50.9745C6.05078 49.5961 7.16825 48.4788 8.54663 48.4788H53.4705C54.8489 48.4788 55.9662 49.5961 55.9662 50.9745C55.9662 52.3529 54.8489 53.4702 53.4705 53.4702H8.54663C7.16825 53.4702 6.05078 52.3529 6.05078 50.9745ZM18.5297 28.5126C17.1513 28.5126 16.0339 29.6299 16.0339 31.0083C16.0339 32.3868 17.1513 33.5042 18.5297 33.5042H63.4535C64.8319 33.5042 65.9493 32.3868 65.9493 31.0083C65.9493 29.6299 64.8319 28.5126 63.4535 28.5126H18.5297Z" fill="#707070" fill-opacity="0.86"/>
</g>
</g>
</g>
<defs>
<linearGradient id="paint0_linear_5029_51113" x1="54.4927" y1="65.1778" x2="15.2715" y2="9.32428" gradientUnits="userSpaceOnUse">
<stop stop-color="#E25A01" stop-opacity="0.649744"/>
<stop offset="0.5" stop-color="#F09701" stop-opacity="0.649744"/>
<stop offset="1" stop-color="#FFD400" stop-opacity="0.649744"/>
</linearGradient>
<linearGradient id="paint1_linear_5029_51113" x1="51.903" y1="60.9672" x2="18.1742" y2="12.9352" gradientUnits="userSpaceOnUse">
<stop stop-color="#E25A01"/>
<stop offset="0.5" stop-color="#F09701"/>
<stop offset="1" stop-color="#FFD400"/>
</linearGradient>
<clipPath id="clip0_5029_51113">
<rect width="72" height="72" fill="white"/>
</clipPath>
</defs>
</svg>
