<svg width="72" height="72" viewBox="0 0 72 72" fill="none" xmlns="http://www.w3.org/2000/svg">
<g clip-path="url(#clip0_5029_51689)">
<mask id="mask0_5029_51689" style="mask-type:luminance" maskUnits="userSpaceOnUse" x="0" y="0" width="72" height="72">
<path d="M72 0H0V72H72V0Z" fill="white"/>
</mask>
<g mask="url(#mask0_5029_51689)">
<mask id="mask1_5029_51689" style="mask-type:luminance" maskUnits="userSpaceOnUse" x="-1" y="-1" width="74" height="74">
<path d="M-0.25 -0.25H72.25V72.25H-0.25V-0.25Z" fill="white"/>
</mask>
<g mask="url(#mask1_5029_51689)">
<path d="M0.103271 36.2486C0.103271 56.1406 16.2291 72.2663 36.1211 72.2663C56.0131 72.2663 72.1387 56.1406 72.1387 36.2486C72.1387 16.3566 56.0131 0.230957 36.1211 0.230957C16.2291 0.230957 0.103271 16.3566 0.103271 36.2486Z" fill="url(#paint0_linear_5029_51689)"/>
<path d="M11.198 36.0717C11.198 49.8156 22.3398 60.9573 36.0838 60.9573C49.8277 60.9573 60.9693 49.8156 60.9693 36.0717C60.9693 22.3277 49.8277 11.186 36.0838 11.186C22.3398 11.186 11.198 22.3277 11.198 36.0717Z" fill="url(#paint1_linear_5029_51689)"/>
<path d="M52.9677 25.2026C53.8196 25.2026 54.5102 25.8932 54.5102 26.7451C54.5102 27.597 53.8196 28.2876 52.9677 28.2876H36.0001C35.1482 28.2876 34.4576 27.597 34.4576 26.7451C34.4576 25.8932 35.1482 25.2026 36.0001 25.2026H52.9677ZM19.0325 37.5427C18.1806 37.5427 17.49 38.2332 17.49 39.0852C17.49 39.9371 18.1806 40.6277 19.0325 40.6277H36.0001C36.8521 40.6277 37.5427 39.9371 37.5427 39.0852C37.5427 38.2332 36.8521 37.5427 36.0001 37.5427H19.0325ZM40.6276 39.0852C40.6276 38.2332 41.3182 37.5427 42.1702 37.5427H46.7977C47.6496 37.5427 48.3402 38.2332 48.3402 39.0852C48.3402 39.9371 47.6496 40.6277 46.7977 40.6277H42.1702C41.3182 40.6277 40.6276 39.9371 40.6276 39.0852ZM29.8301 25.2026C30.682 25.2026 31.3726 25.8932 31.3726 26.7451C31.3726 27.597 30.682 28.2876 29.8301 28.2876H25.2026C24.3507 28.2876 23.6601 27.597 23.6601 26.7451C23.6601 25.8932 24.3507 25.2026 25.2026 25.2026H29.8301ZM17.49 45.2552C17.49 44.4033 18.1806 43.7127 19.0325 43.7127H46.7977C47.6496 43.7127 48.3402 44.4033 48.3402 45.2552C48.3402 46.1071 47.6496 46.7977 46.7977 46.7977H19.0325C18.1806 46.7977 17.49 46.1071 17.49 45.2552ZM25.2026 31.3726C24.3507 31.3726 23.6601 32.0632 23.6601 32.9151C23.6601 33.7671 24.3507 34.4577 25.2026 34.4577H52.9677C53.8196 34.4577 54.5102 33.7671 54.5102 32.9151C54.5102 32.0632 53.8196 31.3726 52.9677 31.3726H25.2026Z" fill="#707070" fill-opacity="0.06"/>
</g>
</g>
</g>
<defs>
<linearGradient id="paint0_linear_5029_51689" x1="55.3733" y1="66.5603" x2="14.2847" y2="8.04744" gradientUnits="userSpaceOnUse">
<stop stop-color="#E25A01" stop-opacity="0.362564"/>
<stop offset="0.5" stop-color="#F09701" stop-opacity="0.362564"/>
<stop offset="1" stop-color="#FFD400" stop-opacity="0.362564"/>
</linearGradient>
<linearGradient id="paint1_linear_5029_51689" x1="49.3856" y1="57.0148" x2="20.9963" y2="16.5867" gradientUnits="userSpaceOnUse">
<stop stop-color="#E25A01"/>
<stop offset="0.5" stop-color="#F09701"/>
<stop offset="1" stop-color="#FFD400"/>
</linearGradient>
<clipPath id="clip0_5029_51689">
<rect width="72" height="72" fill="white"/>
</clipPath>
</defs>
</svg>
