<svg width="72" height="72" viewBox="0 0 72 72" fill="none" xmlns="http://www.w3.org/2000/svg">
<g clip-path="url(#clip0_5029_52265)">
<mask id="mask0_5029_52265" style="mask-type:luminance" maskUnits="userSpaceOnUse" x="0" y="0" width="72" height="72">
<path d="M72 0H0V72H72V0Z" fill="white"/>
</mask>
<g mask="url(#mask0_5029_52265)">
<mask id="mask1_5029_52265" style="mask-type:luminance" maskUnits="userSpaceOnUse" x="-1" y="-1" width="74" height="74">
<path d="M-0.25 -0.25H72.25V72.25H-0.25V-0.25Z" fill="white"/>
</mask>
<g mask="url(#mask1_5029_52265)">
<path d="M3.67065 36.2383C3.67065 54.1534 18.1939 68.6766 36.1091 68.6766C54.0242 68.6766 68.5472 54.1534 68.5472 36.2383C68.5472 18.3232 54.0242 3.80005 36.1091 3.80005C18.1939 3.80005 3.67065 18.3232 3.67065 36.2383Z" fill="url(#paint0_linear_5029_52265)"/>
<path d="M6.0105 36.0865C6.0105 52.705 19.4826 66.177 36.1011 66.177C52.7195 66.177 66.1914 52.705 66.1914 36.0865C66.1914 19.4681 52.7195 5.99609 36.1011 5.99609C19.4826 5.99609 6.0105 19.4681 6.0105 36.0865Z" fill="url(#paint1_linear_5029_52265)"/>
<path d="M14.7576 17.875C14.7576 17.875 22.5019 17.875 23.7857 17.875" stroke="#707070" stroke-width="5.945" stroke-linecap="round"/>
<path d="M35.9639 17.875C35.9639 17.875 63.8616 17.875 68.4866 17.875" stroke="#707070" stroke-width="5.945" stroke-linecap="round"/>
<path d="M14.8662 29.9827C14.8662 29.9827 60.5393 29.9827 68.1112 29.9827" stroke="#707070" stroke-width="5.945" stroke-linecap="round"/>
<path d="M2.8313 42.0901C2.8313 42.0901 30.7596 42.0901 35.3896 42.0901" stroke="#707070" stroke-width="5.945" stroke-linecap="round"/>
<path d="M2.8313 54.125C2.8313 54.125 48.5044 54.125 56.0763 54.125" stroke="#707070" stroke-width="5.945" stroke-linecap="round"/>
<path d="M48.0352 42.0176C48.0352 42.0176 55.7795 42.0176 57.0633 42.0176" stroke="#707070" stroke-width="5.945" stroke-linecap="round"/>
</g>
</g>
</g>
<defs>
<linearGradient id="paint0_linear_5029_52265" x1="53.4479" y1="63.5376" x2="16.4427" y2="10.8397" gradientUnits="userSpaceOnUse">
<stop stop-color="#E25A01" stop-opacity="0.0753846"/>
<stop offset="0.5" stop-color="#F09701" stop-opacity="0.0753846"/>
<stop offset="1" stop-color="#FFD400" stop-opacity="0.0753846"/>
</linearGradient>
<linearGradient id="paint1_linear_5029_52265" x1="52.185" y1="61.4099" x2="17.8582" y2="12.5263" gradientUnits="userSpaceOnUse">
<stop stop-color="#E25A01"/>
<stop offset="0.5" stop-color="#F09701"/>
<stop offset="1" stop-color="#FFD400"/>
</linearGradient>
<clipPath id="clip0_5029_52265">
<rect width="72" height="72" fill="white"/>
</clipPath>
</defs>
</svg>
