<svg width="72" height="72" viewBox="0 0 72 72" fill="none" xmlns="http://www.w3.org/2000/svg">
<g clip-path="url(#clip0_3457_4809)">
<mask id="mask0_3457_4809" style="mask-type:luminance" maskUnits="userSpaceOnUse" x="0" y="0" width="72" height="72">
<path d="M72 0H0V72H72V0Z" fill="white"/>
</mask>
<g mask="url(#mask0_3457_4809)">
<mask id="mask1_3457_4809" style="mask-type:luminance" maskUnits="userSpaceOnUse" x="-1" y="-1" width="74" height="74">
<path d="M-0.25 -0.25H72.25V72.25H-0.25V-0.25Z" fill="white"/>
</mask>
<g mask="url(#mask1_3457_4809)">
<path d="M25.3249 12.8232C27.6233 14.1003 29.7592 15.7645 31.6338 17.811C40.9543 27.9867 40.2906 43.7645 30.1512 53.0517C27.9856 55.0353 25.5629 56.5623 23.0009 57.6383C21.7085 58.181 21.4522 59.9892 22.7134 60.601C32.5762 65.3845 44.754 63.9966 53.3033 56.1658C64.5002 45.91 65.2332 28.4864 54.9404 17.2493C47.2156 8.81572 35.4754 6.26373 25.3649 9.85115C25.1618 9.92327 24.9914 10.0273 24.8527 10.1544C24.0896 10.8535 24.2889 12.2474 25.3249 12.8232Z" fill="url(#paint0_linear_3457_4809)"/>
<g opacity="0.34">
<path d="M53.7558 24.7012C54.6473 24.7012 55.37 25.4238 55.37 26.3153C55.37 27.2068 54.6473 27.9294 53.7558 27.9294H36C35.1085 27.9294 34.3859 27.2068 34.3859 26.3153C34.3859 25.4238 35.1085 24.7012 36 24.7012H53.7558ZM18.2443 37.6144C17.3528 37.6144 16.6301 38.3371 16.6301 39.2286C16.6301 40.1201 17.3528 40.8428 18.2443 40.8428H36C36.8916 40.8428 37.6142 40.1201 37.6142 39.2286C37.6142 38.3371 36.8916 37.6144 36 37.6144H18.2443ZM40.8425 39.2286C40.8425 38.3371 41.5651 37.6144 42.4567 37.6144H47.2992C48.1907 37.6144 48.9133 38.3371 48.9133 39.2286C48.9133 40.1201 48.1907 40.8428 47.2992 40.8428H42.4567C41.5651 40.8428 40.8425 40.1201 40.8425 39.2286ZM29.5434 24.7012C30.4349 24.7012 31.1575 25.4238 31.1575 26.3153C31.1575 27.2068 30.4349 27.9294 29.5434 27.9294H24.7009C23.8094 27.9294 23.0868 27.2068 23.0868 26.3153C23.0868 25.4238 23.8094 24.7012 24.7009 24.7012H29.5434ZM16.6301 45.6853C16.6301 44.7938 17.3528 44.0711 18.2443 44.0711H47.2992C48.1907 44.0711 48.9133 44.7938 48.9133 45.6853C48.9133 46.5767 48.1907 47.2994 47.2992 47.2994H18.2443C17.3528 47.2994 16.6301 46.5767 16.6301 45.6853ZM24.7009 31.1578C23.8094 31.1578 23.0868 31.8805 23.0868 32.7719C23.0868 33.6635 23.8094 34.3861 24.7009 34.3861H53.7558C54.6473 34.3861 55.37 33.6635 55.37 32.7719C55.37 31.8805 54.6473 31.1578 53.7558 31.1578H24.7009Z" fill="#707070"/>
</g>
</g>
</g>
</g>
<defs>
<linearGradient id="paint0_linear_3457_4809" x1="16.1424" y1="14.663" x2="51.526" y2="53.7653" gradientUnits="userSpaceOnUse">
<stop stop-color="#F0851D"/>
<stop offset="0.22" stop-color="#EF851C"/>
<stop offset="0.45" stop-color="#EE851A"/>
<stop offset="0.72" stop-color="#EE8219"/>
<stop offset="1" stop-color="#EE7F18"/>
</linearGradient>
<clipPath id="clip0_3457_4809">
<rect width="72" height="72" fill="white"/>
</clipPath>
</defs>
</svg>
