<svg width="72" height="72" viewBox="0 0 72 72" fill="none" xmlns="http://www.w3.org/2000/svg">
<g clip-path="url(#clip0_3457_5831)">
<mask id="mask0_3457_5831" style="mask-type:luminance" maskUnits="userSpaceOnUse" x="0" y="0" width="72" height="72">
<path d="M72 0H0V72H72V0Z" fill="white"/>
</mask>
<g mask="url(#mask0_3457_5831)">
<mask id="mask1_3457_5831" style="mask-type:luminance" maskUnits="userSpaceOnUse" x="-1" y="-1" width="74" height="74">
<path d="M-0.25 -0.25H72.25V72.25H-0.25V-0.25Z" fill="white"/>
</mask>
<g mask="url(#mask1_3457_5831)">
<path d="M44.9718 5.76752C46.077 8.83544 46.7145 12.1324 46.796 15.5732C47.2012 32.6818 33.7101 46.8782 16.6628 47.282C13.0217 47.3682 9.51291 46.8182 6.24201 45.7332C4.59209 45.1859 2.8776 46.6659 3.5566 48.2661C8.86708 60.7803 21.3746 69.4182 35.7486 69.0778C54.5739 68.6319 69.4724 52.9546 69.0249 34.0615C68.689 19.882 59.8044 7.92088 47.4337 3.024C47.1852 2.92568 46.9411 2.88384 46.7079 2.88936C45.4248 2.91989 44.4737 4.38454 44.9718 5.76752Z" fill="url(#paint0_linear_3457_5831)"/>
<path d="M14.7575 17.875C14.7575 17.875 22.5018 17.875 23.7856 17.875" stroke="#707070" stroke-width="5.945" stroke-linecap="round"/>
<path d="M35.9637 17.875C35.9637 17.875 63.8615 17.875 68.4865 17.875" stroke="#707070" stroke-width="5.945" stroke-linecap="round"/>
<path d="M14.8662 29.9824C14.8662 29.9824 60.5394 29.9824 68.1113 29.9824" stroke="#707070" stroke-width="5.945" stroke-linecap="round"/>
<path d="M2.83125 42.0898C2.83125 42.0898 30.7595 42.0898 35.3895 42.0898" stroke="#707070" stroke-width="5.945" stroke-linecap="round"/>
<path d="M2.83125 54.125C2.83125 54.125 48.5044 54.125 56.0763 54.125" stroke="#707070" stroke-width="5.945" stroke-linecap="round"/>
<path d="M48.035 42.0176C48.035 42.0176 55.7793 42.0176 57.0631 42.0176" stroke="#707070" stroke-width="5.945" stroke-linecap="round"/>
</g>
</g>
</g>
<defs>
<linearGradient id="paint0_linear_3457_5831" x1="34.8937" y1="-0.00473694" x2="36.0467" y2="65.3856" gradientUnits="userSpaceOnUse">
<stop stop-color="#FCAE42"/>
<stop offset="0.22" stop-color="#F5AF36"/>
<stop offset="0.45" stop-color="#EEB02B"/>
<stop offset="0.72" stop-color="#EE9721"/>
<stop offset="1" stop-color="#EE7F18"/>
</linearGradient>
<clipPath id="clip0_3457_5831">
<rect width="72" height="72" fill="white"/>
</clipPath>
</defs>
</svg>
