<svg width="72" height="72" viewBox="0 0 72 72" fill="none" xmlns="http://www.w3.org/2000/svg">
<g clip-path="url(#clip0_3457_4603)">
<mask id="mask0_3457_4603" style="mask-type:luminance" maskUnits="userSpaceOnUse" x="0" y="0" width="72" height="72">
<path d="M72 0H0V72H72V0Z" fill="white"/>
</mask>
<g mask="url(#mask0_3457_4603)">
<mask id="mask1_3457_4603" style="mask-type:luminance" maskUnits="userSpaceOnUse" x="-1" y="-1" width="74" height="74">
<path d="M-0.25 -0.25H72.25V72.25H-0.25V-0.25Z" fill="white"/>
</mask>
<g mask="url(#mask1_3457_4603)">
<path d="M25.8966 11.9217C28.2028 13.3085 30.3291 15.0857 32.1748 17.2447C41.3516 27.9798 40.1195 44.0949 29.4227 53.2389C27.1381 55.192 24.6064 56.6689 21.9481 57.6797C20.6072 58.1895 20.2816 60.03 21.5502 60.7C31.4707 65.9387 43.9756 64.9461 52.9949 57.236C64.8072 47.1383 66.1679 29.3422 56.0339 17.4873C48.4282 8.59014 36.5091 5.56818 26.0417 8.8831C25.8315 8.94975 25.6535 9.05017 25.5071 9.17528C24.7021 9.8636 24.857 11.2964 25.8966 11.9217Z" fill="url(#paint0_linear_3457_4603)"/>
<g opacity="0.64">
<path d="M56.8498 22.7305C57.8966 22.7305 58.7452 23.579 58.7452 24.6259C58.7452 25.6727 57.8966 26.5213 56.8498 26.5213H36C34.9532 26.5213 34.1046 25.6727 34.1046 24.6259C34.1046 23.579 34.9532 22.7305 36 22.7305H56.8498ZM15.1503 37.8939C14.1035 37.8939 13.2548 38.7424 13.2548 39.7893C13.2548 40.8362 14.1035 41.6847 15.1503 41.6847H36C37.0469 41.6847 37.8955 40.8362 37.8955 39.7893C37.8955 38.7424 37.0469 37.8939 36 37.8939H15.1503ZM41.6863 39.7893C41.6863 38.7424 42.5349 37.8939 43.5818 37.8939H49.2681C50.3149 37.8939 51.1635 38.7424 51.1635 39.7893C51.1635 40.8362 50.3149 41.6847 49.2681 41.6847H43.5818C42.5349 41.6847 41.6863 40.8362 41.6863 39.7893ZM28.4183 22.7305C29.4651 22.7305 30.3137 23.579 30.3137 24.6259C30.3137 25.6727 29.4651 26.5213 28.4183 26.5213H22.732C21.6852 26.5213 20.8366 25.6727 20.8366 24.6259C20.8366 23.579 21.6852 22.7305 22.732 22.7305H28.4183ZM13.2548 47.371C13.2548 46.3242 14.1035 45.4756 15.1503 45.4756H49.2681C50.3149 45.4756 51.1635 46.3242 51.1635 47.371C51.1635 48.4179 50.3149 49.2664 49.2681 49.2664H15.1503C14.1035 49.2664 13.2548 48.4179 13.2548 47.371ZM22.732 30.3122C21.6852 30.3122 20.8366 31.1607 20.8366 32.2076C20.8366 33.2545 21.6852 34.1031 22.732 34.1031H56.8498C57.8966 34.1031 58.7452 33.2545 58.7452 32.2076C58.7452 31.1607 57.8966 30.3122 56.8498 30.3122H22.732Z" fill="#707070"/>
</g>
</g>
</g>
</g>
<defs>
<linearGradient id="paint0_linear_3457_4603" x1="16.4397" y1="13.4816" x2="51.2611" y2="54.7184" gradientUnits="userSpaceOnUse">
<stop stop-color="#F28E26"/>
<stop offset="0.22" stop-color="#F08F22"/>
<stop offset="0.45" stop-color="#EE8F1E"/>
<stop offset="0.72" stop-color="#EE871B"/>
<stop offset="1" stop-color="#EE7F18"/>
</linearGradient>
<clipPath id="clip0_3457_4603">
<rect width="72" height="72" fill="white"/>
</clipPath>
</defs>
</svg>
