<svg width="72" height="72" viewBox="0 0 72 72" fill="none" xmlns="http://www.w3.org/2000/svg">
<g clip-path="url(#clip0_3457_4398)">
<mask id="mask0_3457_4398" style="mask-type:luminance" maskUnits="userSpaceOnUse" x="0" y="0" width="72" height="72">
<path d="M72 0H0V72H72V0Z" fill="white"/>
</mask>
<g mask="url(#mask0_3457_4398)">
<mask id="mask1_3457_4398" style="mask-type:luminance" maskUnits="userSpaceOnUse" x="-1" y="-1" width="74" height="74">
<path d="M-0.25 -0.25H72.25V72.25H-0.25V-0.25Z" fill="white"/>
</mask>
<g mask="url(#mask1_3457_4398)">
<path d="M45.3467 5.82198C46.4174 8.90831 47.017 12.2185 47.0579 15.6663C47.2612 32.8094 33.5786 46.8708 16.4969 47.0734C12.8485 47.1167 9.34008 46.5241 6.07634 45.3986C4.43003 44.8307 2.69504 46.293 3.35628 47.9041C8.52781 60.5028 20.9548 69.3039 35.3578 69.133C54.2212 68.9093 69.3311 53.3812 69.1065 34.4499C68.938 20.2418 60.1795 8.15469 47.8453 3.10283C47.5975 3.0014 47.3535 2.95659 47.1198 2.95936C45.8342 2.97476 44.8641 4.43069 45.3467 5.82198Z" fill="url(#paint0_linear_3457_4398)"/>
<g opacity="0.94">
<path d="M67.4985 15.9551C69.0799 15.9551 70.3619 17.2371 70.3619 18.8185C70.3619 20.4 69.0799 21.682 67.4985 21.682H36C34.4185 21.682 33.1365 20.4 33.1365 18.8185C33.1365 17.2371 34.4185 15.9551 36 15.9551H67.4985ZM4.50165 38.8629C2.92017 38.8629 1.63806 40.1449 1.63806 41.7265C1.63806 43.308 2.92017 44.59 4.50165 44.59H36C37.5816 44.59 38.8636 43.308 38.8636 41.7265C38.8636 40.1449 37.5816 38.8629 36 38.8629H4.50165ZM44.5905 41.7265C44.5905 40.1449 45.8725 38.8629 47.4541 38.8629H56.0445C57.626 38.8629 58.908 40.1449 58.908 41.7265C58.908 43.308 57.626 44.59 56.0445 44.59H47.4541C45.8725 44.59 44.5905 43.308 44.5905 41.7265ZM24.5461 15.9551C26.1275 15.9551 27.4095 17.2371 27.4095 18.8185C27.4095 20.4 26.1275 21.682 24.5461 21.682H15.9556C14.3741 21.682 13.0921 20.4 13.0921 18.8185C13.0921 17.2371 14.3741 15.9551 15.9556 15.9551H24.5461ZM1.63806 53.1805C1.63806 51.599 2.92017 50.317 4.50165 50.317H56.0445C57.626 50.317 58.908 51.599 58.908 53.1805C58.908 54.7619 57.626 56.0439 56.0445 56.0439H4.50165C2.92017 56.0439 1.63806 54.7619 1.63806 53.1805ZM15.9556 27.409C14.3741 27.409 13.0921 28.691 13.0921 30.2725C13.0921 31.8541 14.3741 33.136 15.9556 33.136H67.4985C69.0799 33.136 70.3619 31.8541 70.3619 30.2725C70.3619 28.691 69.0799 27.409 67.4985 27.409H15.9556Z" fill="#707070"/>
</g>
</g>
</g>
</g>
<defs>
<linearGradient id="paint0_linear_3457_4398" x1="35.3193" y1="-0.0796431" x2="35.7001" y2="65.438" gradientUnits="userSpaceOnUse">
<stop stop-color="#FCAF43"/>
<stop offset="0.22" stop-color="#F5B037"/>
<stop offset="0.45" stop-color="#EEB12B"/>
<stop offset="0.72" stop-color="#EE9822"/>
<stop offset="1" stop-color="#EE7F18"/>
</linearGradient>
<clipPath id="clip0_3457_4398">
<rect width="72" height="72" fill="white"/>
</clipPath>
</defs>
</svg>
